<svg xmlns="http://www.w3.org/2000/svg" width="720" height="480" viewBox="0 0 720 480" font-family="system-ui, -apple-system, 'Segoe UI', sans-serif" font-size="11"><defs><clipPath id="clip1"><rect x="62" y="40" width="644" height="398"/></clipPath></defs><g><line x1="69.85" y1="40" x2="69.85" y2="438" stroke="rgba(32,32,32,0.14)" stroke-width="1"/><line x1="169.58" y1="40" x2="169.58" y2="438" stroke="rgba(32,32,32,0.14)" stroke-width="1"/><line x1="269.31" y1="40" x2="269.31" y2="438" stroke="rgba(32,32,32,0.14)" stroke-width="1"/><line x1="369.04" y1="40" x2="369.04" y2="438" stroke="rgba(32,32,32,0.14)" stroke-width="1"/><line x1="468.77" y1="40" x2="468.77" y2="438" stroke="rgba(32,32,32,0.14)" stroke-width="1"/><line x1="568.5" y1="40" x2="568.5" y2="438" stroke="rgba(32,32,32,0.14)" stroke-width="1"/><line x1="668.23" y1="40" x2="668.23" y2="438" stroke="rgba(32,32,32,0.14)" stroke-width="1"/><line x1="62" y1="373.44" x2="706" y2="373.44" stroke="rgba(32,32,32,0.14)" stroke-width="1"/><line x1="62" y1="292.58" x2="706" y2="292.58" stroke="rgba(32,32,32,0.14)" stroke-width="1"/><line x1="62" y1="211.71" x2="706" y2="211.71" stroke="rgba(32,32,32,0.14)" stroke-width="1"/><line x1="62" y1="130.84" x2="706" y2="130.84" stroke="rgba(32,32,32,0.14)" stroke-width="1"/><line x1="62" y1="49.97" x2="706" y2="49.97" stroke="rgba(32,32,32,0.14)" stroke-width="1"/></g><g clip-path="url(#clip1)"><g><circle id="edd37a899" cx="252.86" cy="426.74" r="3.5" fill="#2f6f9f" fill-opacity="0.8"/><circle id="e83793aad" cx="113.93" cy="230.87" r="3.5" fill="#2f6f9f" fill-opacity="0.8"/><circle id="ef54dcdf7" cx="147.14" cy="51.26" r="3.5" fill="#2f6f9f" fill-opacity="0.8"/><circle id="efb9a4933" cx="687.77" cy="158.66" r="3.5" fill="#2f6f9f" fill-opacity="0.8"/><circle id="e1098a577" cx="576.58" cy="304.87" r="3.5" fill="#2f6f9f" fill-opacity="0.8"/><circle id="e0bf3efc2" cx="80.23" cy="224.73" r="3.5" fill="#2f6f9f" fill-opacity="0.8"/></g></g><line x1="62" y1="40" x2="62" y2="438" stroke="rgba(32,32,32,0.55)" stroke-width="1"/><line x1="62" y1="438" x2="706" y2="438" stroke="rgba(32,32,32,0.55)" stroke-width="1"/><line x1="69.85" y1="438" x2="69.85" y2="438" stroke="rgba(32,32,32,0.55)" stroke-width="1"/><line x1="169.58" y1="438" x2="169.58" y2="438" stroke="rgba(32,32,32,0.55)" stroke-width="1"/><line x1="269.31" y1="438" x2="269.31" y2="438" stroke="rgba(32,32,32,0.55)" stroke-width="1"/><line x1="369.04" y1="438" x2="369.04" y2="438" stroke="rgba(32,32,32,0.55)" stroke-width="1"/><line x1="468.77" y1="438" x2="468.77" y2="438" stroke="rgba(32,32,32,0.55)" stroke-width="1"/><line x1="568.5" y1="438" x2="568.5" y2="438" stroke="rgba(32,32,32,0.55)" stroke-width="1"/><line x1="668.23" y1="438" x2="668.23" y2="438" stroke="rgba(32,32,32,0.55)" stroke-width="1"/><line x1="62" y1="373.44" x2="62" y2="373.44" stroke="rgba(32,32,32,0.55)" stroke-width="1"/><line x1="62" y1="292.58" x2="62" y2="292.58" stroke="rgba(32,32,32,0.55)" stroke-width="1"/><line x1="62" y1="211.71" x2="62" y2="211.71" stroke="rgba(32,32,32,0.55)" stroke-width="1"/><line x1="62" y1="130.84" x2="62" y2="130.84" stroke="rgba(32,32,32,0.55)" stroke-width="1"/><line x1="62" y1="49.97" x2="62" y2="49.97" stroke="rgba(32,32,32,0.55)" stroke-width="1"/><g fill="rgba(32,32,32,0.85)"><text x="69.85" y="454" fill="rgba(32,32,32,0.85)" font-size="11" text-anchor="middle">10</text><text x="169.58" y="454" fill="rgba(32,32,32,0.85)" font-size="11" text-anchor="middle">20</text><text x="269.31" y="454" fill="rgba(32,32,32,0.85)" font-size="11" text-anchor="middle">30</text><text x="369.04" y="454" fill="rgba(32,32,32,0.85)" font-size="11" text-anchor="middle">40</text><text x="468.77" y="454" fill="rgba(32,32,32,0.85)" font-size="11" text-anchor="middle">50</text><text x="568.5" y="454" fill="rgba(32,32,32,0.85)" font-size="11" text-anchor="middle">60</text><text x="668.23" y="454" fill="rgba(32,32,32,0.85)" font-size="11" text-anchor="middle">70</text><text x="54" y="377.44" fill="rgba(32,32,32,0.85)" font-size="11" text-anchor="end">10</text><text x="54" y="296.58" fill="rgba(32,32,32,0.85)" font-size="11" text-anchor="end">20</text><text x="54" y="215.71" fill="rgba(32,32,32,0.85)" font-size="11" text-anchor="end">30</text><text x="54" y="134.84" fill="rgba(32,32,32,0.85)" font-size="11" text-anchor="end">40</text><text x="54" y="53.97" fill="rgba(32,32,32,0.85)" font-size="11" text-anchor="end">50</text></g><text x="360" y="28" text-anchor="middle" font-size="14" font-weight="400" fill="rgba(32,32,32,0.85)">Observations</text></svg>