<svg xmlns="http://www.w3.org/2000/svg" width="720" height="480" viewBox="0 0 720 480" font-family="system-ui, -apple-system, 'Segoe UI', sans-serif" font-size="11"><defs><clipPath id="clip1"><rect x="62" y="40" width="644" height="398"/></clipPath></defs><g><line x1="78.56" y1="40" x2="78.56" y2="438" stroke="rgba(32,32,32,0.14)" stroke-width="1"/><line x1="237.05" y1="40" x2="237.05" y2="438" stroke="rgba(32,32,32,0.14)" stroke-width="1"/><line x1="395.53" y1="40" x2="395.53" y2="438" stroke="rgba(32,32,32,0.14)" stroke-width="1"/><line x1="554.01" y1="40" x2="554.01" y2="438" stroke="rgba(32,32,32,0.14)" stroke-width="1"/><line x1="62" y1="429.02" x2="706" y2="429.02" stroke="rgba(32,32,32,0.14)" stroke-width="1"/><line x1="62" y1="329.87" x2="706" y2="329.87" stroke="rgba(32,32,32,0.14)" stroke-width="1"/><line x1="62" y1="230.72" x2="706" y2="230.72" stroke="rgba(32,32,32,0.14)" stroke-width="1"/><line x1="62" y1="131.57" x2="706" y2="131.57" stroke="rgba(32,32,32,0.14)" stroke-width="1"/></g><g clip-path="url(#clip1)"><g><circle id="e88e96a0b" cx="{{GEOM_9b9dad4a}}" cy="{{GEOM_937791f9}}" r="3.5" fill="#4f8a4f" fill-opacity="0.8"/><circle id="e06288401" cx="{{GEOM_cb23441f}}" cy="{{GEOM_eb989a31}}" r="3.5" fill="#4f8a4f" fill-opacity="0.8"/><circle id="e688f2cdd" cx="{{GEOM_92c1e29e}}" cy="{{GEOM_dacf4eee}}" r="3.5" fill="#4f8a4f" fill-opacity="0.8"/><circle id="e32310567" cx="{{GEOM_a033dd76}}" cy="{{GEOM_9b69b14c}}" r="3.5" fill="#4f8a4f" fill-opacity="0.8"/><circle id="e37c9503f" cx="{{GEOM_f1a61cac}}" cy="{{GEOM_488575c3}}" r="3.5" fill="#4f8a4f" fill-opacity="0.8"/><circle id="e2bd50889" cx="{{GEOM_cabeca9f}}" cy="{{GEOM_b2aa36a0}}" r="3.5" fill="#4f8a4f" fill-opacity="0.8"/><circle id="ea869e37e" cx="{{GEOM_f645b488}}" cy="{{GEOM_f7a3b64f}}" r="3.5" fill="#4f8a4f" fill-opacity="0.8"/></g></g><line x1="62" y1="40" x2="62" y2="438" stroke="rgba(32,32,32,0.55)" stroke-width="1"/><line x1="62" y1="438" x2="706" y2="438" stroke="rgba(32,32,32,0.55)" stroke-width="1"/><line x1="78.56" y1="438" x2="78.56" y2="438" stroke="rgba(32,32,32,0.55)" stroke-width="1"/><line x1="237.05" y1="438" x2="237.05" y2="438" stroke="rgba(32,32,32,0.55)" stroke-width="1"/><line x1="395.53" y1="438" x2="395.53" y2="438" stroke="rgba(32,32,32,0.55)" stroke-width="1"/><line x1="554.01" y1="438" x2="554.01" y2="438" stroke="rgba(32,32,32,0.55)" stroke-width="1"/><line x1="62" y1="429.02" x2="62" y2="429.02" stroke="rgba(32,32,32,0.55)" stroke-width="1"/><line x1="62" y1="329.87" x2="62" y2="329.87" stroke="rgba(32,32,32,0.55)" stroke-width="1"/><line x1="62" y1="230.72" x2="62" y2="230.72" stroke="rgba(32,32,32,0.55)" stroke-width="1"/><line x1="62" y1="131.57" x2="62" y2="131.57" stroke="rgba(32,32,32,0.55)" stroke-width="1"/><g fill="rgba(32,32,32,0.85)"><text x="78.56" y="454" fill="rgba(32,32,32,0.85)" font-size="11" text-anchor="middle">20</text><text x="237.05" y="454" fill="rgba(32,32,32,0.85)" font-size="11" text-anchor="middle">40</text><text x="395.53" y="454" fill="rgba(32,32,32,0.85)" font-size="11" text-anchor="middle">60</text><text x="554.01" y="454" fill="rgba(32,32,32,0.85)" font-size="11" text-anchor="middle">80</text><text x="54" y="433.02" fill="rgba(32,32,32,0.85)" font-size="11" text-anchor="end">10</text><text x="54" y="333.87" fill="rgba(32,32,32,0.85)" font-size="11" text-anchor="end">20</text><text x="54" y="234.72" fill="rgba(32,32,32,0.85)" font-size="11" text-anchor="end">30</text><text x="54" y="135.57" fill="rgba(32,32,32,0.85)" font-size="11" text-anchor="end">40</text></g><text x="360" y="28" text-anchor="middle" font-size="14" font-weight="400" fill="rgba(32,32,32,0.85)">Observations</text></svg>