<svg xmlns="http://www.w3.org/2000/svg" width="720" height="480" viewBox="0 0 720 480" font-family="system-ui, -apple-system, 'Segoe UI', sans-serif" font-size="11"><defs><clipPath id="clip1"><rect x="62" y="40" width="644" height="398"/></clipPath></defs><g><line x1="120.43" y1="40" x2="120.43" y2="438" stroke="rgba(32,32,32,0.14)" stroke-width="1"/><line x1="222.99" y1="40" x2="222.99" y2="438" stroke="rgba(32,32,32,0.14)" stroke-width="1"/><line x1="325.54" y1="40" x2="325.54" y2="438" stroke="rgba(32,32,32,0.14)" stroke-width="1"/><line x1="428.1" y1="40" x2="428.1" y2="438" stroke="rgba(32,32,32,0.14)" stroke-width="1"/><line x1="530.66" y1="40" x2="530.66" y2="438" stroke="rgba(32,32,32,0.14)" stroke-width="1"/><line x1="633.21" y1="40" x2="633.21" y2="438" stroke="rgba(32,32,32,0.14)" stroke-width="1"/><line x1="62" y1="365.56" x2="706" y2="365.56" stroke="rgba(32,32,32,0.14)" stroke-width="1"/><line x1="62" y1="284.43" x2="706" y2="284.43" stroke="rgba(32,32,32,0.14)" stroke-width="1"/><line x1="62" y1="203.3" x2="706" y2="203.3" stroke="rgba(32,32,32,0.14)" stroke-width="1"/><line x1="62" y1="122.17" x2="706" y2="122.17" stroke="rgba(32,32,32,0.14)" stroke-width="1"/><line x1="62" y1="41.04" x2="706" y2="41.04" stroke="rgba(32,32,32,0.14)" stroke-width="1"/></g><g clip-path="url(#clip1)"><g><circle id="e330b62e6" cx="{{GEOM_445b44a3}}" cy="{{GEOM_3b19d579}}" r="3.5" fill="#8a4f7d" fill-opacity="0.8"/><circle id="eecd033b9" cx="{{GEOM_c89440b0}}" cy="{{GEOM_ceafba0e}}" r="3.5" fill="#8a4f7d" fill-opacity="0.8"/><circle id="e62eb4f8b" cx="{{GEOM_cdc5c7da}}" cy="{{GEOM_26c89735}}" r="3.5" fill="#8a4f7d" fill-opacity="0.8"/><circle id="ebcaa10c0" cx="{{GEOM_027b86fe}}" cy="{{GEOM_59023de5}}" r="3.5" fill="#8a4f7d" fill-opacity="0.8"/><circle id="e428c1b36" cx="{{GEOM_2af772db}}" cy="{{GEOM_4df107f2}}" r="3.5" fill="#8a4f7d" fill-opacity="0.8"/></g></g><line x1="62" y1="40" x2="62" y2="438" stroke="rgba(32,32,32,0.55)" stroke-width="1"/><line x1="62" y1="438" x2="706" y2="438" stroke="rgba(32,32,32,0.55)" stroke-width="1"/><line x1="120.43" y1="438" x2="120.43" y2="438" stroke="rgba(32,32,32,0.55)" stroke-width="1"/><line x1="222.99" y1="438" x2="222.99" y2="438" stroke="rgba(32,32,32,0.55)" stroke-width="1"/><line x1="325.54" y1="438" x2="325.54" y2="438" stroke="rgba(32,32,32,0.55)" stroke-width="1"/><line x1="428.1" y1="438" x2="428.1" y2="438" stroke="rgba(32,32,32,0.55)" stroke-width="1"/><line x1="530.66" y1="438" x2="530.66" y2="438" stroke="rgba(32,32,32,0.55)" stroke-width="1"/><line x1="633.21" y1="438" x2="633.21" y2="438" stroke="rgba(32,32,32,0.55)" stroke-width="1"/><line x1="62" y1="365.56" x2="62" y2="365.56" stroke="rgba(32,32,32,0.55)" stroke-width="1"/><line x1="62" y1="284.43" x2="62" y2="284.43" stroke="rgba(32,32,32,0.55)" stroke-width="1"/><line x1="62" y1="203.3" x2="62" y2="203.3" stroke="rgba(32,32,32,0.55)" stroke-width="1"/><line x1="62" y1="122.17" x2="62" y2="122.17" stroke="rgba(32,32,32,0.55)" stroke-width="1"/><line x1="62" y1="41.04" x2="62" y2="41.04" stroke="rgba(32,32,32,0.55)" stroke-width="1"/><g fill="rgba(32,32,32,0.85)"><text x="120.43" y="454" fill="rgba(32,32,32,0.85)" font-size="11" text-anchor="middle">30</text><text x="222.99" y="454" fill="rgba(32,32,32,0.85)" font-size="11" text-anchor="middle">40</text><text x="325.54" y="454" fill="rgba(32,32,32,0.85)" font-size="11" text-anchor="middle">50</text><text x="428.1" y="454" fill="rgba(32,32,32,0.85)" font-size="11" text-anchor="middle">60</text><text x="530.66" y="454" fill="rgba(32,32,32,0.85)" font-size="11" text-anchor="middle">70</text><text x="633.21" y="454" fill="rgba(32,32,32,0.85)" font-size="11" text-anchor="middle">80</text><text x="54" y="369.56" fill="rgba(32,32,32,0.85)" font-size="11" text-anchor="end">10</text><text x="54" y="288.43" fill="rgba(32,32,32,0.85)" font-size="11" text-anchor="end">15</text><text x="54" y="207.3" fill="rgba(32,32,32,0.85)" font-size="11" text-anchor="end">20</text><text x="54" y="126.17" fill="rgba(32,32,32,0.85)" font-size="11" text-anchor="end">25</text><text x="54" y="45.04" fill="rgba(32,32,32,0.85)" font-size="11" text-anchor="end">30</text></g><text x="360" y="28" text-anchor="middle" font-size="14" font-weight="400" fill="rgba(32,32,32,0.85)">Observations</text></svg>