<svg xmlns="http://www.w3.org/2000/svg" width="720" height="480" viewBox="0 0 720 480" font-family="system-ui, -apple-system, 'Segoe UI', sans-serif" font-size="11"><defs><clipPath id="clip1"><rect x="62" y="40" width="644" height="398"/></clipPath></defs><g><line x1="162.08" y1="40" x2="162.08" y2="438" stroke="rgba(32,32,32,0.14)" stroke-width="1"/><line x1="270.2" y1="40" x2="270.2" y2="438" stroke="rgba(32,32,32,0.14)" stroke-width="1"/><line x1="378.32" y1="40" x2="378.32" y2="438" stroke="rgba(32,32,32,0.14)" stroke-width="1"/><line x1="486.45" y1="40" x2="486.45" y2="438" stroke="rgba(32,32,32,0.14)" stroke-width="1"/><line x1="594.57" y1="40" x2="594.57" y2="438" stroke="rgba(32,32,32,0.14)" stroke-width="1"/><line x1="702.69" y1="40" x2="702.69" y2="438" stroke="rgba(32,32,32,0.14)" stroke-width="1"/><line x1="62" y1="427.2" x2="706" y2="427.2" stroke="rgba(32,32,32,0.14)" stroke-width="1"/><line x1="62" y1="369.49" x2="706" y2="369.49" stroke="rgba(32,32,32,0.14)" stroke-width="1"/><line x1="62" y1="311.77" x2="706" y2="311.77" stroke="rgba(32,32,32,0.14)" stroke-width="1"/><line x1="62" y1="254.06" x2="706" y2="254.06" stroke="rgba(32,32,32,0.14)" stroke-width="1"/><line x1="62" y1="196.35" x2="706" y2="196.35" stroke="rgba(32,32,32,0.14)" stroke-width="1"/><line x1="62" y1="138.64" x2="706" y2="138.64" stroke="rgba(32,32,32,0.14)" stroke-width="1"/><line x1="62" y1="80.93" x2="706" y2="80.93" stroke="rgba(32,32,32,0.14)" stroke-width="1"/></g><g clip-path="url(#clip1)"><g><circle id="e991c8d03" cx="{{GEOM_4f511f2c}}" cy="{{GEOM_f417179f}}" r="3.5" fill="#8c5a3c" fill-opacity="0.8"/><circle id="ed4af625d" cx="{{GEOM_ded7d6d1}}" cy="{{GEOM_da71105a}}" r="3.5" fill="#8c5a3c" fill-opacity="0.8"/><circle id="e2dd634a0" cx="{{GEOM_cdeaba4a}}" cy="{{GEOM_9f550923}}" r="3.5" fill="#8c5a3c" fill-opacity="0.8"/><circle id="edfea85f5" cx="{{GEOM_e3eaaba4}}" cy="{{GEOM_33d9de1a}}" r="3.5" fill="#8c5a3c" fill-opacity="0.8"/><circle id="efdd3972a" cx="{{GEOM_7064152c}}" cy="{{GEOM_abf1b5a8}}" r="3.5" fill="#8c5a3c" fill-opacity="0.8"/></g></g><line x1="62" y1="40" x2="62" y2="438" stroke="rgba(32,32,32,0.55)" stroke-width="1"/><line x1="62" y1="438" x2="706" y2="438" stroke="rgba(32,32,32,0.55)" stroke-width="1"/><line x1="162.08" y1="438" x2="162.08" y2="438" stroke="rgba(32,32,32,0.55)" stroke-width="1"/><line x1="270.2" y1="438" x2="270.2" y2="438" stroke="rgba(32,32,32,0.55)" stroke-width="1"/><line x1="378.32" y1="438" x2="378.32" y2="438" stroke="rgba(32,32,32,0.55)" stroke-width="1"/><line x1="486.45" y1="438" x2="486.45" y2="438" stroke="rgba(32,32,32,0.55)" stroke-width="1"/><line x1="594.57" y1="438" x2="594.57" y2="438" stroke="rgba(32,32,32,0.55)" stroke-width="1"/><line x1="702.69" y1="438" x2="702.69" y2="438" stroke="rgba(32,32,32,0.55)" stroke-width="1"/><line x1="62" y1="427.2" x2="62" y2="427.2" stroke="rgba(32,32,32,0.55)" stroke-width="1"/><line x1="62" y1="369.49" x2="62" y2="369.49" stroke="rgba(32,32,32,0.55)" stroke-width="1"/><line x1="62" y1="311.77" x2="62" y2="311.77" stroke="rgba(32,32,32,0.55)" stroke-width="1"/><line x1="62" y1="254.06" x2="62" y2="254.06" stroke="rgba(32,32,32,0.55)" stroke-width="1"/><line x1="62" y1="196.35" x2="62" y2="196.35" stroke="rgba(32,32,32,0.55)" stroke-width="1"/><line x1="62" y1="138.64" x2="62" y2="138.64" stroke="rgba(32,32,32,0.55)" stroke-width="1"/><line x1="62" y1="80.93" x2="62" y2="80.93" stroke="rgba(32,32,32,0.55)" stroke-width="1"/><g fill="rgba(32,32,32,0.85)"><text x="162.08" y="454" fill="rgba(32,32,32,0.85)" font-size="11" text-anchor="middle">20</text><text x="270.2" y="454" fill="rgba(32,32,32,0.85)" font-size="11" text-anchor="middle">30</text><text x="378.32" y="454" fill="rgba(32,32,32,0.85)" font-size="11" text-anchor="middle">40</text><text x="486.45" y="454" fill="rgba(32,32,32,0.85)" font-size="11" text-anchor="middle">50</text><text x="594.57" y="454" fill="rgba(32,32,32,0.85)" font-size="11" text-anchor="middle">60</text><text x="702.69" y="454" fill="rgba(32,32,32,0.85)" font-size="11" text-anchor="middle">70</text><text x="54" y="431.2" fill="rgba(32,32,32,0.85)" font-size="11" text-anchor="end">0</text><text x="54" y="373.49" fill="rgba(32,32,32,0.85)" font-size="11" text-anchor="end">5</text><text x="54" y="315.77" fill="rgba(32,32,32,0.85)" font-size="11" text-anchor="end">10</text><text x="54" y="258.06" fill="rgba(32,32,32,0.85)" font-size="11" text-anchor="end">15</text><text x="54" y="200.35" fill="rgba(32,32,32,0.85)" font-size="11" text-anchor="end">20</text><text x="54" y="142.64" fill="rgba(32,32,32,0.85)" font-size="11" text-anchor="end">25</text><text x="54" y="84.93" fill="rgba(32,32,32,0.85)" font-size="11" text-anchor="end">30</text></g><text x="360" y="28" text-anchor="middle" font-size="14" font-weight="400" fill="rgba(32,32,32,0.85)">Observations</text></svg>