<svg xmlns="http://www.w3.org/2000/svg" width="720" height="480" viewBox="0 0 720 480" font-family="system-ui, -apple-system, 'Segoe UI', sans-serif" font-size="11"><defs><clipPath id="clip1"><rect x="62" y="40" width="644" height="398"/></clipPath></defs><g><line x1="70.63" y1="40" x2="70.63" y2="438" stroke="rgba(32,32,32,0.14)" stroke-width="1"/><line x1="225.36" y1="40" x2="225.36" y2="438" stroke="rgba(32,32,32,0.14)" stroke-width="1"/><line x1="380.09" y1="40" x2="380.09" y2="438" stroke="rgba(32,32,32,0.14)" stroke-width="1"/><line x1="534.82" y1="40" x2="534.82" y2="438" stroke="rgba(32,32,32,0.14)" stroke-width="1"/><line x1="689.55" y1="40" x2="689.55" y2="438" stroke="rgba(32,32,32,0.14)" stroke-width="1"/><line x1="62" y1="437.93" x2="706" y2="437.93" stroke="rgba(32,32,32,0.14)" stroke-width="1"/><line x1="62" y1="356.82" x2="706" y2="356.82" stroke="rgba(32,32,32,0.14)" stroke-width="1"/><line x1="62" y1="275.7" x2="706" y2="275.7" stroke="rgba(32,32,32,0.14)" stroke-width="1"/><line x1="62" y1="194.59" x2="706" y2="194.59" stroke="rgba(32,32,32,0.14)" stroke-width="1"/><line x1="62" y1="113.48" x2="706" y2="113.48" stroke="rgba(32,32,32,0.14)" stroke-width="1"/></g><g clip-path="url(#clip1)"><g><circle id="ebae733eb" cx="{{GEOM_8e227768}}" cy="{{GEOM_189829b5}}" r="3.5" fill="#8a4f7d" fill-opacity="0.8"/><circle id="e4120a347" cx="{{GEOM_6aebdcb3}}" cy="{{GEOM_f2156fa0}}" r="3.5" fill="#8a4f7d" fill-opacity="0.8"/><circle id="ea5c1aba2" cx="{{GEOM_d73fc310}}" cy="{{GEOM_55edade3}}" r="3.5" fill="#8a4f7d" fill-opacity="0.8"/><circle id="ecf4cd479" cx="{{GEOM_bafef2c0}}" cy="{{GEOM_54fbbe39}}" r="3.5" fill="#8a4f7d" fill-opacity="0.8"/><circle id="ed33e5c95" cx="{{GEOM_2da169d0}}" cy="{{GEOM_e983b97b}}" r="3.5" fill="#8a4f7d" fill-opacity="0.8"/><circle id="efa15c3a4" cx="{{GEOM_e906bd95}}" cy="{{GEOM_80964461}}" r="3.5" fill="#8a4f7d" fill-opacity="0.8"/></g></g><line x1="62" y1="40" x2="62" y2="438" stroke="rgba(32,32,32,0.55)" stroke-width="1"/><line x1="62" y1="438" x2="706" y2="438" stroke="rgba(32,32,32,0.55)" stroke-width="1"/><line x1="70.63" y1="438" x2="70.63" y2="438" stroke="rgba(32,32,32,0.55)" stroke-width="1"/><line x1="225.36" y1="438" x2="225.36" y2="438" stroke="rgba(32,32,32,0.55)" stroke-width="1"/><line x1="380.09" y1="438" x2="380.09" y2="438" stroke="rgba(32,32,32,0.55)" stroke-width="1"/><line x1="534.82" y1="438" x2="534.82" y2="438" stroke="rgba(32,32,32,0.55)" stroke-width="1"/><line x1="689.55" y1="438" x2="689.55" y2="438" stroke="rgba(32,32,32,0.55)" stroke-width="1"/><line x1="62" y1="437.93" x2="62" y2="437.93" stroke="rgba(32,32,32,0.55)" stroke-width="1"/><line x1="62" y1="356.82" x2="62" y2="356.82" stroke="rgba(32,32,32,0.55)" stroke-width="1"/><line x1="62" y1="275.7" x2="62" y2="275.7" stroke="rgba(32,32,32,0.55)" stroke-width="1"/><line x1="62" y1="194.59" x2="62" y2="194.59" stroke="rgba(32,32,32,0.55)" stroke-width="1"/><line x1="62" y1="113.48" x2="62" y2="113.48" stroke="rgba(32,32,32,0.55)" stroke-width="1"/><g fill="rgba(32,32,32,0.85)"><text x="70.63" y="454" fill="rgba(32,32,32,0.85)" font-size="11" text-anchor="middle">20</text><text x="225.36" y="454" fill="rgba(32,32,32,0.85)" font-size="11" text-anchor="middle">40</text><text x="380.09" y="454" fill="rgba(32,32,32,0.85)" font-size="11" text-anchor="middle">60</text><text x="534.82" y="454" fill="rgba(32,32,32,0.85)" font-size="11" text-anchor="middle">80</text><text x="689.55" y="454" fill="rgba(32,32,32,0.85)" font-size="11" text-anchor="middle">100</text><text x="54" y="441.93" fill="rgba(32,32,32,0.85)" font-size="11" text-anchor="end">0</text><text x="54" y="360.82" fill="rgba(32,32,32,0.85)" font-size="11" text-anchor="end">10</text><text x="54" y="279.7" fill="rgba(32,32,32,0.85)" font-size="11" text-anchor="end">20</text><text x="54" y="198.59" fill="rgba(32,32,32,0.85)" font-size="11" text-anchor="end">30</text><text x="54" y="117.48" fill="rgba(32,32,32,0.85)" font-size="11" text-anchor="end">40</text></g><text x="360" y="28" text-anchor="middle" font-size="14" font-weight="400" fill="rgba(32,32,32,0.85)">Observations</text></svg>