<svg xmlns="http://www.w3.org/2000/svg" width="720" height="480" viewBox="0 0 720 480" font-family="system-ui, -apple-system, 'Segoe UI', sans-serif" font-size="11"><defs><clipPath id="clip1"><rect x="62" y="40" width="644" height="398"/></clipPath></defs><g><line x1="197.54" y1="40" x2="197.54" y2="438" stroke="rgba(32,32,32,0.14)" stroke-width="1"/><line x1="335.71" y1="40" x2="335.71" y2="438" stroke="rgba(32,32,32,0.14)" stroke-width="1"/><line x1="473.88" y1="40" x2="473.88" y2="438" stroke="rgba(32,32,32,0.14)" stroke-width="1"/><line x1="612.05" y1="40" x2="612.05" y2="438" stroke="rgba(32,32,32,0.14)" stroke-width="1"/><line x1="62" y1="416.15" x2="706" y2="416.15" stroke="rgba(32,32,32,0.14)" stroke-width="1"/><line x1="62" y1="359.82" x2="706" y2="359.82" stroke="rgba(32,32,32,0.14)" stroke-width="1"/><line x1="62" y1="303.49" x2="706" y2="303.49" stroke="rgba(32,32,32,0.14)" stroke-width="1"/><line x1="62" y1="247.17" x2="706" y2="247.17" stroke="rgba(32,32,32,0.14)" stroke-width="1"/><line x1="62" y1="190.84" x2="706" y2="190.84" stroke="rgba(32,32,32,0.14)" stroke-width="1"/><line x1="62" y1="134.51" x2="706" y2="134.51" stroke="rgba(32,32,32,0.14)" stroke-width="1"/><line x1="62" y1="78.19" x2="706" y2="78.19" stroke="rgba(32,32,32,0.14)" stroke-width="1"/></g><g clip-path="url(#clip1)"><g><circle id="eb12ebd47" cx="{{GEOM_288aeb9e}}" cy="{{GEOM_2f36ef10}}" r="3.5" fill="#8a4f7d" fill-opacity="0.8"/><circle id="e3ccbf79f" cx="{{GEOM_aa42a7b6}}" cy="{{GEOM_a191c278}}" r="3.5" fill="#8a4f7d" fill-opacity="0.8"/><circle id="eb230751d" cx="{{GEOM_2bb9f44a}}" cy="{{GEOM_afd5f1b4}}" r="3.5" fill="#8a4f7d" fill-opacity="0.8"/><circle id="e3dca3dba" cx="{{GEOM_71b2f57f}}" cy="{{GEOM_dd5b83dd}}" r="3.5" fill="#8a4f7d" fill-opacity="0.8"/></g></g><line x1="62" y1="40" x2="62" y2="438" stroke="rgba(32,32,32,0.55)" stroke-width="1"/><line x1="62" y1="438" x2="706" y2="438" stroke="rgba(32,32,32,0.55)" stroke-width="1"/><line x1="197.54" y1="438" x2="197.54" y2="438" stroke="rgba(32,32,32,0.55)" stroke-width="1"/><line x1="335.71" y1="438" x2="335.71" y2="438" stroke="rgba(32,32,32,0.55)" stroke-width="1"/><line x1="473.88" y1="438" x2="473.88" y2="438" stroke="rgba(32,32,32,0.55)" stroke-width="1"/><line x1="612.05" y1="438" x2="612.05" y2="438" stroke="rgba(32,32,32,0.55)" stroke-width="1"/><line x1="62" y1="416.15" x2="62" y2="416.15" stroke="rgba(32,32,32,0.55)" stroke-width="1"/><line x1="62" y1="359.82" x2="62" y2="359.82" stroke="rgba(32,32,32,0.55)" stroke-width="1"/><line x1="62" y1="303.49" x2="62" y2="303.49" stroke="rgba(32,32,32,0.55)" stroke-width="1"/><line x1="62" y1="247.17" x2="62" y2="247.17" stroke="rgba(32,32,32,0.55)" stroke-width="1"/><line x1="62" y1="190.84" x2="62" y2="190.84" stroke="rgba(32,32,32,0.55)" stroke-width="1"/><line x1="62" y1="134.51" x2="62" y2="134.51" stroke="rgba(32,32,32,0.55)" stroke-width="1"/><line x1="62" y1="78.19" x2="62" y2="78.19" stroke="rgba(32,32,32,0.55)" stroke-width="1"/><g fill="rgba(32,32,32,0.85)"><text x="197.54" y="454" fill="rgba(32,32,32,0.85)" font-size="11" text-anchor="middle">20</text><text x="335.71" y="454" fill="rgba(32,32,32,0.85)" font-size="11" text-anchor="middle">40</text><text x="473.88" y="454" fill="rgba(32,32,32,0.85)" font-size="11" text-anchor="middle">60</text><text x="612.05" y="454" fill="rgba(32,32,32,0.85)" font-size="11" text-anchor="middle">80</text><text x="54" y="420.15" fill="rgba(32,32,32,0.85)" font-size="11" text-anchor="end">15</text><text x="54" y="363.82" fill="rgba(32,32,32,0.85)" font-size="11" text-anchor="end">20</text><text x="54" y="307.49" fill="rgba(32,32,32,0.85)" font-size="11" text-anchor="end">25</text><text x="54" y="251.17" fill="rgba(32,32,32,0.85)" font-size="11" text-anchor="end">30</text><text x="54" y="194.84" fill="rgba(32,32,32,0.85)" font-size="11" text-anchor="end">35</text><text x="54" y="138.51" fill="rgba(32,32,32,0.85)" font-size="11" text-anchor="end">40</text><text x="54" y="82.19" fill="rgba(32,32,32,0.85)" font-size="11" text-anchor="end">45</text></g><text x="360" y="28" text-anchor="middle" font-size="14" font-weight="400" fill="rgba(32,32,32,0.85)">Observations</text></svg>