<svg xmlns="http://www.w3.org/2000/svg" width="720" height="480" viewBox="0 0 720 480" font-family="system-ui, -apple-system, 'Segoe UI', sans-serif" font-size="11"><defs><clipPath id="clip1"><rect x="62" y="40" width="644" height="398"/></clipPath></defs><g><line x1="69.19" y1="40" x2="69.19" y2="438" stroke="rgba(32,32,32,0.14)" stroke-width="1"/><line x1="221.47" y1="40" x2="221.47" y2="438" stroke="rgba(32,32,32,0.14)" stroke-width="1"/><line x1="373.76" y1="40" x2="373.76" y2="438" stroke="rgba(32,32,32,0.14)" stroke-width="1"/><line x1="526.05" y1="40" x2="526.05" y2="438" stroke="rgba(32,32,32,0.14)" stroke-width="1"/><line x1="678.33" y1="40" x2="678.33" y2="438" stroke="rgba(32,32,32,0.14)" stroke-width="1"/><line x1="62" y1="393.92" x2="706" y2="393.92" stroke="rgba(32,32,32,0.14)" stroke-width="1"/><line x1="62" y1="322.26" x2="706" y2="322.26" stroke="rgba(32,32,32,0.14)" stroke-width="1"/><line x1="62" y1="250.61" x2="706" y2="250.61" stroke="rgba(32,32,32,0.14)" stroke-width="1"/><line x1="62" y1="178.95" x2="706" y2="178.95" stroke="rgba(32,32,32,0.14)" stroke-width="1"/><line x1="62" y1="107.3" x2="706" y2="107.3" stroke="rgba(32,32,32,0.14)" stroke-width="1"/></g><g clip-path="url(#clip1)"><g><circle id="ed331e42d" cx="687.77" cy="288.3" r="3.5" fill="#8c5a3c" fill-opacity="0.8"/><circle id="e4430ef20" cx="637.98" cy="347.92" r="3.5" fill="#8c5a3c" fill-opacity="0.8"/><circle id="ef6e8914c" cx="312.23" cy="51.26" r="3.5" fill="#8c5a3c" fill-opacity="0.8"/><circle id="e045a29bd" cx="124.69" cy="262.07" r="3.5" fill="#8c5a3c" fill-opacity="0.8"/><circle id="eeccf8ed7" cx="80.23" cy="272.1" r="3.5" fill="#8c5a3c" fill-opacity="0.8"/><circle id="e8aa53787" cx="346.65" cy="394.2" r="3.5" fill="#8c5a3c" fill-opacity="0.8"/><circle id="e6a41edd5" cx="436.2" cy="426.74" r="3.5" fill="#8c5a3c" fill-opacity="0.8"/></g></g><line x1="62" y1="40" x2="62" y2="438" stroke="rgba(32,32,32,0.55)" stroke-width="1"/><line x1="62" y1="438" x2="706" y2="438" stroke="rgba(32,32,32,0.55)" stroke-width="1"/><line x1="69.19" y1="438" x2="69.19" y2="438" stroke="rgba(32,32,32,0.55)" stroke-width="1"/><line x1="221.47" y1="438" x2="221.47" y2="438" stroke="rgba(32,32,32,0.55)" stroke-width="1"/><line x1="373.76" y1="438" x2="373.76" y2="438" stroke="rgba(32,32,32,0.55)" stroke-width="1"/><line x1="526.05" y1="438" x2="526.05" y2="438" stroke="rgba(32,32,32,0.55)" stroke-width="1"/><line x1="678.33" y1="438" x2="678.33" y2="438" stroke="rgba(32,32,32,0.55)" stroke-width="1"/><line x1="62" y1="393.92" x2="62" y2="393.92" stroke="rgba(32,32,32,0.55)" stroke-width="1"/><line x1="62" y1="322.26" x2="62" y2="322.26" stroke="rgba(32,32,32,0.55)" stroke-width="1"/><line x1="62" y1="250.61" x2="62" y2="250.61" stroke="rgba(32,32,32,0.55)" stroke-width="1"/><line x1="62" y1="178.95" x2="62" y2="178.95" stroke="rgba(32,32,32,0.55)" stroke-width="1"/><line x1="62" y1="107.3" x2="62" y2="107.3" stroke="rgba(32,32,32,0.55)" stroke-width="1"/><g fill="rgba(32,32,32,0.85)"><text x="69.19" y="454" fill="rgba(32,32,32,0.85)" font-size="11" text-anchor="middle">0</text><text x="221.47" y="454" fill="rgba(32,32,32,0.85)" font-size="11" text-anchor="middle">20</text><text x="373.76" y="454" fill="rgba(32,32,32,0.85)" font-size="11" text-anchor="middle">40</text><text x="526.05" y="454" fill="rgba(32,32,32,0.85)" font-size="11" text-anchor="middle">60</text><text x="678.33" y="454" fill="rgba(32,32,32,0.85)" font-size="11" text-anchor="middle">80</text><text x="54" y="397.92" fill="rgba(32,32,32,0.85)" font-size="11" text-anchor="end">15</text><text x="54" y="326.26" fill="rgba(32,32,32,0.85)" font-size="11" text-anchor="end">20</text><text x="54" y="254.61" fill="rgba(32,32,32,0.85)" font-size="11" text-anchor="end">25</text><text x="54" y="182.95" fill="rgba(32,32,32,0.85)" font-size="11" text-anchor="end">30</text><text x="54" y="111.3" fill="rgba(32,32,32,0.85)" font-size="11" text-anchor="end">35</text></g><text x="360" y="28" text-anchor="middle" font-size="14" font-weight="400" fill="rgba(32,32,32,0.85)">Observations</text></svg>