<svg xmlns="http://www.w3.org/2000/svg" width="720" height="480" viewBox="0 0 720 480" font-family="system-ui, -apple-system, 'Segoe UI', sans-serif" font-size="11"><defs><clipPath id="clip1"><rect x="62" y="40" width="644" height="398"/></clipPath></defs><g><line x1="64.6" y1="40" x2="64.6" y2="438" stroke="rgba(32,32,32,0.14)" stroke-width="1"/><line x1="193.75" y1="40" x2="193.75" y2="438" stroke="rgba(32,32,32,0.14)" stroke-width="1"/><line x1="322.91" y1="40" x2="322.91" y2="438" stroke="rgba(32,32,32,0.14)" stroke-width="1"/><line x1="452.06" y1="40" x2="452.06" y2="438" stroke="rgba(32,32,32,0.14)" stroke-width="1"/><line x1="581.22" y1="40" x2="581.22" y2="438" stroke="rgba(32,32,32,0.14)" stroke-width="1"/><line x1="62" y1="377.55" x2="706" y2="377.55" stroke="rgba(32,32,32,0.14)" stroke-width="1"/><line x1="62" y1="312.65" x2="706" y2="312.65" stroke="rgba(32,32,32,0.14)" stroke-width="1"/><line x1="62" y1="247.76" x2="706" y2="247.76" stroke="rgba(32,32,32,0.14)" stroke-width="1"/><line x1="62" y1="182.87" x2="706" y2="182.87" stroke="rgba(32,32,32,0.14)" stroke-width="1"/><line x1="62" y1="117.97" x2="706" y2="117.97" stroke="rgba(32,32,32,0.14)" stroke-width="1"/><line x1="62" y1="53.08" x2="706" y2="53.08" stroke="rgba(32,32,32,0.14)" stroke-width="1"/></g><g clip-path="url(#clip1)"><g><circle id="e21d7f2d3" cx="172.12" cy="369.63" r="3.5" fill="#2f6f9f" fill-opacity="0.8"/><circle id="ee848f60d" cx="426.62" cy="355.87" r="3.5" fill="#2f6f9f" fill-opacity="0.8"/><circle id="e6c55834e" cx="492.62" cy="426.74" r="3.5" fill="#2f6f9f" fill-opacity="0.8"/><circle id="e9baf13d2" cx="687.77" cy="51.26" r="3.5" fill="#2f6f9f" fill-opacity="0.8"/><circle id="e96bf09e6" cx="80.23" cy="235.95" r="3.5" fill="#2f6f9f" fill-opacity="0.8"/><circle id="ea25bb12e" cx="531.3" cy="106.94" r="3.5" fill="#2f6f9f" fill-opacity="0.8"/></g></g><line x1="62" y1="40" x2="62" y2="438" stroke="rgba(32,32,32,0.55)" stroke-width="1"/><line x1="62" y1="438" x2="706" y2="438" stroke="rgba(32,32,32,0.55)" stroke-width="1"/><line x1="64.6" y1="438" x2="64.6" y2="438" stroke="rgba(32,32,32,0.55)" stroke-width="1"/><line x1="193.75" y1="438" x2="193.75" y2="438" stroke="rgba(32,32,32,0.55)" stroke-width="1"/><line x1="322.91" y1="438" x2="322.91" y2="438" stroke="rgba(32,32,32,0.55)" stroke-width="1"/><line x1="452.06" y1="438" x2="452.06" y2="438" stroke="rgba(32,32,32,0.55)" stroke-width="1"/><line x1="581.22" y1="438" x2="581.22" y2="438" stroke="rgba(32,32,32,0.55)" stroke-width="1"/><line x1="62" y1="377.55" x2="62" y2="377.55" stroke="rgba(32,32,32,0.55)" stroke-width="1"/><line x1="62" y1="312.65" x2="62" y2="312.65" stroke="rgba(32,32,32,0.55)" stroke-width="1"/><line x1="62" y1="247.76" x2="62" y2="247.76" stroke="rgba(32,32,32,0.55)" stroke-width="1"/><line x1="62" y1="182.87" x2="62" y2="182.87" stroke="rgba(32,32,32,0.55)" stroke-width="1"/><line x1="62" y1="117.97" x2="62" y2="117.97" stroke="rgba(32,32,32,0.55)" stroke-width="1"/><line x1="62" y1="53.08" x2="62" y2="53.08" stroke="rgba(32,32,32,0.55)" stroke-width="1"/><g fill="rgba(32,32,32,0.85)"><text x="64.6" y="454" fill="rgba(32,32,32,0.85)" font-size="11" text-anchor="middle">0</text><text x="193.75" y="454" fill="rgba(32,32,32,0.85)" font-size="11" text-anchor="middle">20</text><text x="322.91" y="454" fill="rgba(32,32,32,0.85)" font-size="11" text-anchor="middle">40</text><text x="452.06" y="454" fill="rgba(32,32,32,0.85)" font-size="11" text-anchor="middle">60</text><text x="581.22" y="454" fill="rgba(32,32,32,0.85)" font-size="11" text-anchor="middle">80</text><text x="54" y="381.55" fill="rgba(32,32,32,0.85)" font-size="11" text-anchor="end">5</text><text x="54" y="316.65" fill="rgba(32,32,32,0.85)" font-size="11" text-anchor="end">10</text><text x="54" y="251.76" fill="rgba(32,32,32,0.85)" font-size="11" text-anchor="end">15</text><text x="54" y="186.87" fill="rgba(32,32,32,0.85)" font-size="11" text-anchor="end">20</text><text x="54" y="121.97" fill="rgba(32,32,32,0.85)" font-size="11" text-anchor="end">25</text><text x="54" y="57.08" fill="rgba(32,32,32,0.85)" font-size="11" text-anchor="end">30</text></g><text x="360" y="28" text-anchor="middle" font-size="14" font-weight="400" fill="rgba(32,32,32,0.85)">Observations</text></svg>