<svg xmlns="http://www.w3.org/2000/svg" width="720" height="480" viewBox="0 0 720 480" font-family="system-ui, -apple-system, 'Segoe UI', sans-serif" font-size="11"><defs><clipPath id="clip1"><rect x="62" y="40" width="644" height="398"/></clipPath></defs><g><line x1="91.58" y1="40" x2="91.58" y2="438" stroke="rgba(32,32,32,0.14)" stroke-width="1"/><line x1="175.72" y1="40" x2="175.72" y2="438" stroke="rgba(32,32,32,0.14)" stroke-width="1"/><line x1="259.86" y1="40" x2="259.86" y2="438" stroke="rgba(32,32,32,0.14)" stroke-width="1"/><line x1="343.99" y1="40" x2="343.99" y2="438" stroke="rgba(32,32,32,0.14)" stroke-width="1"/><line x1="428.13" y1="40" x2="428.13" y2="438" stroke="rgba(32,32,32,0.14)" stroke-width="1"/><line x1="512.27" y1="40" x2="512.27" y2="438" stroke="rgba(32,32,32,0.14)" stroke-width="1"/><line x1="596.4" y1="40" x2="596.4" y2="438" stroke="rgba(32,32,32,0.14)" stroke-width="1"/><line x1="680.54" y1="40" x2="680.54" y2="438" stroke="rgba(32,32,32,0.14)" stroke-width="1"/><line x1="62" y1="408.72" x2="706" y2="408.72" stroke="rgba(32,32,32,0.14)" stroke-width="1"/><line x1="62" y1="346.16" x2="706" y2="346.16" stroke="rgba(32,32,32,0.14)" stroke-width="1"/><line x1="62" y1="283.6" x2="706" y2="283.6" stroke="rgba(32,32,32,0.14)" stroke-width="1"/><line x1="62" y1="221.05" x2="706" y2="221.05" stroke="rgba(32,32,32,0.14)" stroke-width="1"/><line x1="62" y1="158.49" x2="706" y2="158.49" stroke="rgba(32,32,32,0.14)" stroke-width="1"/><line x1="62" y1="95.93" x2="706" y2="95.93" stroke="rgba(32,32,32,0.14)" stroke-width="1"/></g><g clip-path="url(#clip1)"><g><circle id="eaa974b19" cx="{{GEOM_c47dd16f}}" cy="{{GEOM_e57bfa8c}}" r="3.5" fill="#8c5a3c" fill-opacity="0.8"/><circle id="e72ae9534" cx="{{GEOM_83bb695a}}" cy="{{GEOM_ef7c4aa8}}" r="3.5" fill="#8c5a3c" fill-opacity="0.8"/><circle id="ef47a1bc0" cx="{{GEOM_20581aaa}}" cy="{{GEOM_47d805a5}}" r="3.5" fill="#8c5a3c" fill-opacity="0.8"/><circle id="ed7a3772c" cx="{{GEOM_25a01e8d}}" cy="{{GEOM_09e8148a}}" r="3.5" fill="#8c5a3c" fill-opacity="0.8"/><circle id="eb08073c1" cx="{{GEOM_3197801f}}" cy="{{GEOM_67bd893b}}" r="3.5" fill="#8c5a3c" fill-opacity="0.8"/><circle id="ed8b6f049" cx="{{GEOM_5a71f026}}" cy="{{GEOM_4e43ea9c}}" r="3.5" fill="#8c5a3c" fill-opacity="0.8"/></g></g><line x1="62" y1="40" x2="62" y2="438" stroke="rgba(32,32,32,0.55)" stroke-width="1"/><line x1="62" y1="438" x2="706" y2="438" stroke="rgba(32,32,32,0.55)" stroke-width="1"/><line x1="91.58" y1="438" x2="91.58" y2="438" stroke="rgba(32,32,32,0.55)" stroke-width="1"/><line x1="175.72" y1="438" x2="175.72" y2="438" stroke="rgba(32,32,32,0.55)" stroke-width="1"/><line x1="259.86" y1="438" x2="259.86" y2="438" stroke="rgba(32,32,32,0.55)" stroke-width="1"/><line x1="343.99" y1="438" x2="343.99" y2="438" stroke="rgba(32,32,32,0.55)" stroke-width="1"/><line x1="428.13" y1="438" x2="428.13" y2="438" stroke="rgba(32,32,32,0.55)" stroke-width="1"/><line x1="512.27" y1="438" x2="512.27" y2="438" stroke="rgba(32,32,32,0.55)" stroke-width="1"/><line x1="596.4" y1="438" x2="596.4" y2="438" stroke="rgba(32,32,32,0.55)" stroke-width="1"/><line x1="680.54" y1="438" x2="680.54" y2="438" stroke="rgba(32,32,32,0.55)" stroke-width="1"/><line x1="62" y1="408.72" x2="62" y2="408.72" stroke="rgba(32,32,32,0.55)" stroke-width="1"/><line x1="62" y1="346.16" x2="62" y2="346.16" stroke="rgba(32,32,32,0.55)" stroke-width="1"/><line x1="62" y1="283.6" x2="62" y2="283.6" stroke="rgba(32,32,32,0.55)" stroke-width="1"/><line x1="62" y1="221.05" x2="62" y2="221.05" stroke="rgba(32,32,32,0.55)" stroke-width="1"/><line x1="62" y1="158.49" x2="62" y2="158.49" stroke="rgba(32,32,32,0.55)" stroke-width="1"/><line x1="62" y1="95.93" x2="62" y2="95.93" stroke="rgba(32,32,32,0.55)" stroke-width="1"/><g fill="rgba(32,32,32,0.85)"><text x="91.58" y="454" fill="rgba(32,32,32,0.85)" font-size="11" text-anchor="middle">20</text><text x="175.72" y="454" fill="rgba(32,32,32,0.85)" font-size="11" text-anchor="middle">30</text><text x="259.86" y="454" fill="rgba(32,32,32,0.85)" font-size="11" text-anchor="middle">40</text><text x="343.99" y="454" fill="rgba(32,32,32,0.85)" font-size="11" text-anchor="middle">50</text><text x="428.13" y="454" fill="rgba(32,32,32,0.85)" font-size="11" text-anchor="middle">60</text><text x="512.27" y="454" fill="rgba(32,32,32,0.85)" font-size="11" text-anchor="middle">70</text><text x="596.4" y="454" fill="rgba(32,32,32,0.85)" font-size="11" text-anchor="middle">80</text><text x="680.54" y="454" fill="rgba(32,32,32,0.85)" font-size="11" text-anchor="middle">90</text><text x="54" y="412.72" fill="rgba(32,32,32,0.85)" font-size="11" text-anchor="end">10</text><text x="54" y="350.16" fill="rgba(32,32,32,0.85)" font-size="11" text-anchor="end">15</text><text x="54" y="287.6" fill="rgba(32,32,32,0.85)" font-size="11" text-anchor="end">20</text><text x="54" y="225.05" fill="rgba(32,32,32,0.85)" font-size="11" text-anchor="end">25</text><text x="54" y="162.49" fill="rgba(32,32,32,0.85)" font-size="11" text-anchor="end">30</text><text x="54" y="99.93" fill="rgba(32,32,32,0.85)" font-size="11" text-anchor="end">35</text></g><text x="360" y="28" text-anchor="middle" font-size="14" font-weight="400" fill="rgba(32,32,32,0.85)">Observations</text></svg>